<mxfile host="app.diagrams.net" modified="2021-04-22T06:37:23.103Z" agent="5.0 (Windows NT 10.0; Win64; x64) AppleWebKit/537.36 (KHTML, like Gecko) Chrome/89.0.4389.128 Safari/537.36" etag="8UKYpcQOCwfsTtTez7RE" version="14.6.3" type="github">
  <diagram id="ReRmTqMzSak63XXyDwUT" name="Page-1">
    <mxGraphModel dx="1422" dy="762" grid="1" gridSize="10" guides="1" tooltips="1" connect="1" arrows="1" fold="1" page="1" pageScale="1" pageWidth="827" pageHeight="1169" math="0" shadow="0">
      <root>
        <mxCell id="0" />
        <mxCell id="1" parent="0" />
        <mxCell id="tSMUSOesz_k4iFkqkvHg-11" value="Heroku" style="verticalAlign=top;align=left;spacingTop=8;spacingLeft=2;spacingRight=12;shape=cube;size=10;direction=south;fontStyle=4;html=1;rounded=0;shadow=0;comic=0;labelBackgroundColor=none;strokeWidth=1;fontFamily=Verdana;fontSize=12" vertex="1" parent="1">
          <mxGeometry x="75" y="480" width="500" height="150" as="geometry" />
        </mxCell>
        <mxCell id="tSMUSOesz_k4iFkqkvHg-1" value="AWS" style="verticalAlign=top;align=left;spacingTop=8;spacingLeft=2;spacingRight=12;shape=cube;size=10;direction=south;fontStyle=4;html=1;rounded=0;shadow=0;comic=0;labelBackgroundColor=none;strokeWidth=1;fontFamily=Verdana;fontSize=12" vertex="1" parent="1">
          <mxGeometry x="50" y="50" width="550" height="400" as="geometry" />
        </mxCell>
        <mxCell id="tSMUSOesz_k4iFkqkvHg-2" style="edgeStyle=orthogonalEdgeStyle;rounded=0;orthogonalLoop=1;jettySize=auto;html=1;entryX=0;entryY=0.5;entryDx=0;entryDy=0;startArrow=classic;startFill=1;" edge="1" parent="1" source="tSMUSOesz_k4iFkqkvHg-3" target="tSMUSOesz_k4iFkqkvHg-7">
          <mxGeometry relative="1" as="geometry">
            <Array as="points">
              <mxPoint x="750" y="585" />
              <mxPoint x="750" y="93" />
            </Array>
          </mxGeometry>
        </mxCell>
        <mxCell id="tSMUSOesz_k4iFkqkvHg-3" value="WebServer" style="verticalAlign=top;align=left;spacingTop=8;spacingLeft=2;spacingRight=12;shape=cube;size=10;direction=south;fontStyle=4;html=1;rounded=0;shadow=0;comic=0;labelBackgroundColor=none;strokeWidth=1;fontFamily=Verdana;fontSize=12" vertex="1" parent="1">
          <mxGeometry x="430" y="550" width="90" height="45" as="geometry" />
        </mxCell>
        <mxCell id="tSMUSOesz_k4iFkqkvHg-4" style="edgeStyle=orthogonalEdgeStyle;rounded=0;orthogonalLoop=1;jettySize=auto;html=1;entryX=0;entryY=0;entryDx=0;entryDy=60;entryPerimeter=0;" edge="1" parent="1" source="tSMUSOesz_k4iFkqkvHg-9" target="tSMUSOesz_k4iFkqkvHg-10">
          <mxGeometry relative="1" as="geometry" />
        </mxCell>
        <mxCell id="tSMUSOesz_k4iFkqkvHg-5" style="edgeStyle=orthogonalEdgeStyle;rounded=0;orthogonalLoop=1;jettySize=auto;html=1;" edge="1" parent="1" source="tSMUSOesz_k4iFkqkvHg-8" target="tSMUSOesz_k4iFkqkvHg-9">
          <mxGeometry relative="1" as="geometry" />
        </mxCell>
        <mxCell id="tSMUSOesz_k4iFkqkvHg-6" style="edgeStyle=orthogonalEdgeStyle;rounded=0;orthogonalLoop=1;jettySize=auto;html=1;startArrow=classic;startFill=1;" edge="1" parent="1" source="tSMUSOesz_k4iFkqkvHg-7" target="tSMUSOesz_k4iFkqkvHg-8">
          <mxGeometry relative="1" as="geometry">
            <Array as="points">
              <mxPoint x="890" y="20" />
              <mxPoint x="155" y="20" />
            </Array>
          </mxGeometry>
        </mxCell>
        <mxCell id="tSMUSOesz_k4iFkqkvHg-7" value="Client" style="ellipse;whiteSpace=wrap;html=1;" vertex="1" parent="1">
          <mxGeometry x="830" y="52.5" width="120" height="80" as="geometry" />
        </mxCell>
        <mxCell id="tSMUSOesz_k4iFkqkvHg-8" value="nginx" style="verticalAlign=top;align=left;spacingTop=8;spacingLeft=2;spacingRight=12;shape=cube;size=10;direction=south;fontStyle=4;html=1;rounded=0;shadow=0;comic=0;labelBackgroundColor=none;strokeWidth=1;fontFamily=Verdana;fontSize=12" vertex="1" parent="1">
          <mxGeometry x="240" y="110" width="130" height="45" as="geometry" />
        </mxCell>
        <mxCell id="tSMUSOesz_k4iFkqkvHg-9" value="Server" style="verticalAlign=top;align=left;spacingTop=8;spacingLeft=2;spacingRight=12;shape=cube;size=10;direction=south;fontStyle=4;html=1;rounded=0;shadow=0;comic=0;labelBackgroundColor=none;strokeWidth=1;fontFamily=Verdana;fontSize=12" vertex="1" parent="1">
          <mxGeometry x="240" y="200" width="130" height="45" as="geometry" />
        </mxCell>
        <mxCell id="tSMUSOesz_k4iFkqkvHg-10" value="MySQL" style="verticalAlign=top;align=left;spacingTop=8;spacingLeft=2;spacingRight=12;shape=cube;size=10;direction=south;fontStyle=4;html=1;rounded=0;shadow=0;comic=0;labelBackgroundColor=none;strokeWidth=1;fontFamily=Verdana;fontSize=12" vertex="1" parent="1">
          <mxGeometry x="430" y="310" width="130" height="45" as="geometry" />
        </mxCell>
      </root>
    </mxGraphModel>
  </diagram>
</mxfile>
